<svg xmlns="http://www.w3.org/2000/svg" width="36" height="28"><path fill="#3b88c3" d="M32.154 16c0-1 1.523-6.212 3.047-7.735 1.522-1.523 0-3.166-1.523-3.166-3.405 0-9.14 6.901-9.14 10.901 0 5 5.734 10.424 9.14 10.424 1.523 0 3.046-1.404 1.523-2.928C33.678 21.974 32.154 18 32.154 16"/><path fill="#3b88c3" d="M9.022 6.384c0-3.046 1.497-6.093 3.02-6.093 4.569 0 13.322 4.823 14.845 12.439S9.022 6.384 9.022 6.384m4.854 18.278c1.523 1.523 4.57 3.047 7.617 3.047s-3.111-4.189-1.523-6.092c2.18-2.617-6.094 3.045-6.094 3.045"/><path d="M2.072 20.727c.76-2.285.19-3.935-1.143-5.584-1.333-1.651 3.872-1.904 5.585.381s5.713 6.281 2.158 6.22c-3.553-.065-6.6-1.017-6.6-1.017"/><path fill="#55acee" d="M.169 15.488c.959.874 7.223 4.309 7.165 5.137s-2.28-.088-3.105-.279c-1.485-.342-1.905-.598-2.317-.526-.84.321-.554 1.201-.242 1.704 1.498 2.61 7.286 4.662 12.16 4.662 8.412 0 16.802-7.615 16.802-10.662 0-3.046-9.345-10.663-17.757-10.663C4.484 4.86.18 10.922.169 15.488"/><path d="M7 9a2 2 0 1 1 .002 3.999A2 2 0 0 1 7 9"/><path fill="#269" d="M15.08 21.98a.997.997 0 0 1-.884-1.463c1.585-3.034 2.218-5.768.154-9.243a1 1 0 0 1 1.72-1.022c2.693 4.535 1.46 8.202-.102 11.191a1 1 0 0 1-.887.537"/></svg>